{"title":"Exange.[Hahithalfut].2011.BRRip.AC3.HORiZON-ArtSubs","uid":7886286,"size":1473466750,"categoryP":"video","categoryS":"movies","magnet":"?xt=urn:btih:2a685e60e53fe851fa1bfdd83cabfcc93f580b9b&amp;dn=Exange.%5BHahithalfut%5D.2011.BRRip.AC3.HORiZON-ArtSubs&amp;tr=udp%3A%2F%2Ftracker.openbittorrent.com%3A80&amp;tr=udp%3A%2F%2Fopen.demonii.com%3A1337&amp;tr=udp%3A%2F%2Ftracker.coppersurfer.tk%3A6969&amp;tr=udp%3A%2F%2Fexodus.desync.com%3A6969","seeders":2,"leechers":0,"uploader":"lletaif","files":3,"time":1354579585,"description":"Plot: A family man becomes obsessed with looking at his own life out of context. Nominated for the Golden Lion in Venice Film Festival 2011.\t\n\nDirector: Eran Kolirin\n\nWriter: Eran Kolirin (screenplay)\n\nStars: Rotem Keinan, Sharon Tal and Dov Navon\n\nLanguage: Hebrew\n\nSubtitle: English\n\nImdb:  &lt;a href=&quot;\nhttp://www.imdb.com/title/tt1441368/?ref_=fn_al_tt_1&quot; rel=&quot;nofollow&quot; target=&quot;_NEW&quot;&gt;\nhttp://www.imdb.com/title/tt1441368/?ref_=fn_al_tt_1&lt;/a&gt;\n\nRip Specs:\n\nGeneral\nComplete name                    : Exange.[Hahithalfut].2011.BRRip.AC3.HORiZON-ArtSubs.avi\nFormat                           : AVI\nFormat/Info                      : Audio Video Interleave\nFile size                        : 1.37 GiB\nDuration                         : 1h 35mn\nOverall bit rate                 : 2 041 Kbps\nWriting application              : FairUse Wizard - http://fairusewizard.com\nWriting library                  : The best and REALLY easy backup tool\n\nVideo\nID                               : 0\nFormat                           : MPEG-4 Visual\nFormat profile                   : Advanced Simple@L5\nFormat settings, BVOP            : 1\nFormat settings, QPel            : No\nFormat settings, GMC             : No warppoints\nFormat settings, Matrix          : Default (MPEG)\nMuxing mode                      : Packed bitstream\nCodec ID                         : XVID\nCodec ID/Hint                    : XviD\nDuration                         : 1h 35mn\nBit rate                         : 1 583 Kbps\nWidth                            : 688 pixels\nHeight                           : 384 pixels\nDisplay aspect ratio             : 16:9\nFrame rate                       : 25.000 fps\nColor space                      : YUV\nChroma subsampling               : 4:2:0\nBit depth                        : 8 bits\nScan type                        : Progressive\nCompression mode                 : Lossy\nBits/(Pixel*Frame)               : 0.240\nStream size                      : 1.06 GiB (78%)\nWriting library                  : XviD 1.2.0.dev47 (UTC 2006-11-01)\n\nAudio\nID                               : 1\nFormat                           : AC-3\nFormat/Info                      : Audio Coding 3\nMode extension                   : CM (complete main)\nCodec ID                         : 2000\nDuration                         : 1h 35mn\nBit rate mode                    : Constant\nBit rate                         : 448 Kbps\nChannel(s)                       : 6 channels\nChannel positions                : Front: L C R, Side: L R, LFE\nSampling rate                    : 48.0 KHz\nBit depth                        : 16 bits\nCompression mode                 : Lossy\nStream size                      : 307 MiB (22%)\nAlignment                        : Split accross interleaves\nInterleave, duration             : 40 ms (1.00 video frame)\nInterleave, preload duration     : 500 ms\n\n\n\n ","torrent":{"xt":"urn:btih:2a685e60e53fe851fa1bfdd83cabfcc93f580b9b","amp;dn":"Exange.%5BHahithalfut%5D.2011.BRRip.AC3.HORiZON-ArtSubs","amp;tr":["udp%3A%2F%2Ftracker.openbittorrent.com%3A80","udp%3A%2F%2Fopen.demonii.com%3A1337","udp%3A%2F%2Ftracker.coppersurfer.tk%3A6969","udp%3A%2F%2Fexodus.desync.com%3A6969"],"infoHash":"2a685e60e53fe851fa1bfdd83cabfcc93f580b9b","infoHashBuffer":{"type":"Buffer","data":[42,104,94,96,229,63,232,81,250,27,253,216,60,171,252,201,63,88,11,155]},"announce":[],"urlList":[]}}